<svg id="Camada_1" data-name="Camada 1" xmlns="http://www.w3.org/2000/svg" viewBox="0 0 40 40"><defs><style>.cls-1{fill:#333;}.cls-1,.cls-2,.cls-3,.cls-4,.cls-5,.cls-6{fill-rule:evenodd;}.cls-2{fill:#292929;}.cls-3{fill:#010000;}.cls-4{fill:#323232;}.cls-5{fill:#f78729;}.cls-6{fill:#e17c28;}</style></defs><title>escola1</title><g id="Graduation_Hat" data-name="Graduation Hat"><path class="cls-1" d="M9.64,17.24l9.51,1.13,9.51-1.13a2.16,2.16,0,0,1,2.48,2.19v7.11a3,3,0,0,1-2.48,2.78l-9.51,2.12L9.64,29.32a3,3,0,0,1-2.48-2.78V19.43a2.15,2.15,0,0,1,2.48-2.19Z"/><path class="cls-2" d="M19.15,18.37l9.51-1.13a2.16,2.16,0,0,1,2.48,2.19v7.11a3,3,0,0,1-2.48,2.78l-9.51,2.12Z"/><polygon class="cls-3" points="35.54 16.15 38.35 15.94 38.35 17.21 19.15 24.48 -0.05 17.21 -0.05 15.94 2.17 16.36 35.54 16.15"/><polygon class="cls-4" points="19.15 8.65 38.35 15.94 19.15 23.21 -0.05 15.94 19.15 8.65"/><path class="cls-5" d="M38.35,15.37H19.48c-.43,0-1.15,0-1.15.67s.79.67,1.23.67H37.3v8.92h1.05V15.37Z"/><polygon class="cls-5" points="37.06 25.95 37.83 26.13 38.59 25.95 39.88 31.69 38.99 30.87 38.51 32 37.83 28.96 37.14 32 36.67 30.87 35.77 31.69 37.06 25.95"/><path class="cls-6" d="M37.83,27.44A1.41,1.41,0,1,0,36.42,26a1.42,1.42,0,0,0,1.41,1.4Z"/></g></svg>