<?xml version="1.0" encoding="utf-8"?>
<!-- Generator: Adobe Illustrator 23.0.0, SVG Export Plug-In . SVG Version: 6.00 Build 0)  -->
<svg version="1.1" id="Camada_1" xmlns="http://www.w3.org/2000/svg" xmlns:xlink="http://www.w3.org/1999/xlink" x="0px" y="0px"
	 viewBox="0 0 40 40" style="enable-background:new 0 0 40 40;" xml:space="preserve">
<style type="text/css">
	.st0{fill:#010000;}
</style>
<path class="st0" d="M20,0.8c11,0,20,8.8,20,19.7c0,8.7-5.7,16.1-13.7,18.6c-1,0.2-1.4-0.4-1.4-0.9c0-0.5,0-1.7,0-3.3
	c5.6,1.2,6.7-2.6,6.7-2.6c0.9-2.3,2.2-2.9,2.2-2.9c1.8-1.2-0.1-1.2-0.1-1.2c-2,0.1-3.1,2-3.1,2c-1.8,3-4.7,2.1-5.8,1.6
	c-0.2-1.3-0.7-2.1-1.3-2.6c4.4-0.5,9.1-2.2,9.1-9.7c0-2.1-0.8-3.9-2.1-5.3c0.2-0.5,0.9-2.5-0.2-5.2c0,0-1.7-0.5-5.5,2
	c-1.6-0.4-3.3-0.7-5-0.7c-1.7,0-3.4,0.2-5,0.7c-3.8-2.5-5.5-2-5.5-2c-1.1,2.7-0.4,4.7-0.2,5.2c-1.3,1.4-2,3.1-2,5.3
	c0,7.5,4.7,9.2,9.1,9.7c-0.7,0.6-1.4,1.8-1.4,3.6c0,2.6,0,4.7,0,5.4c0,0.5-0.3,1.1-1.4,0.9C5.7,36.5,0,29.2,0,20.5
	C0,9.6,9,0.8,20,0.8z"/>
</svg>
