<?xml version="1.0" encoding="utf-8"?>
<!-- Generator: Adobe Illustrator 23.0.0, SVG Export Plug-In . SVG Version: 6.00 Build 0)  -->
<svg version="1.0" id="Camada_1" xmlns="http://www.w3.org/2000/svg" xmlns:xlink="http://www.w3.org/1999/xlink" x="0px" y="0px"
	 viewBox="0 0 40 40" style="enable-background:new 0 0 40 40;" xml:space="preserve">
<style type="text/css">
	.st0{fill:#010000;}
</style>
<path d="M8.24,3.03l2.97,3.51l-0.94,4.59L5.54,12.2L1.89,7.75c0,0-1.47,4.57,1.21,7.15c2.89,2.79,8.1,1.08,8.5,1.08l20.11,19.7
	c0,0,3.24,3.37,5.8,0.4c2.56-2.97-0.68-5.26-0.68-5.26l-22-18.09c0,0,2.56-4.45-0.54-7.83C12.79,3.33,10.44,2.05,8.24,3.03
	L8.24,3.03z M34.82,31.1c1.42,0,2.56,1.15,2.56,2.57c0,1.42-1.15,2.56-2.56,2.56c-1.42,0-2.56-1.15-2.56-2.56
	C32.26,32.25,33.41,31.1,34.82,31.1L34.82,31.1z"/>
<g>
	<polygon class="st0" points="3.54,30.23 24.52,10.19 30.47,16.29 9.49,36.34 	"/>
	<path class="st0" d="M34.23,12.54c-0.16-0.16-5.95-6.11-5.95-6.11s4.23-4.07,4.54-4.38c0.78-0.63,1.88-0.47,2.66,0.16
		c0.31,0,2.98,2.82,3.29,3.13c0.78,0.78,0.63,2.19-0.16,2.98C37.99,8.93,34.7,12.07,34.23,12.54z"/>
	<path class="st0" d="M2.6,31.33l5.95,6.11C7.61,37.59,0.72,39,0.72,39S2.6,31.33,2.6,31.33z"/>
	
		<rect x="28.45" y="7.02" transform="matrix(0.7213 -0.6926 0.6926 0.7213 0.3483 23.5119)" class="st0" width="1.88" height="8.61"/>
</g>
</svg>
