<?xml version="1.0" encoding="utf-8"?>
<!-- Generator: Adobe Illustrator 23.0.0, SVG Export Plug-In . SVG Version: 6.00 Build 0)  -->
<svg version="1.0" id="Camada_1" xmlns="http://www.w3.org/2000/svg" xmlns:xlink="http://www.w3.org/1999/xlink" x="0px" y="0px"
	 viewBox="0 0 40 40" style="enable-background:new 0 0 40 40;" xml:space="preserve">
<style type="text/css">
	.st0{fill:#0A070C;}
	.st1{fill:#010000;}
</style>
<g>
	<g>
		<path class="st0" d="M20.3,27.07c-4.06,0-7.37-3.31-7.37-7.37c0-4.06,3.31-7.37,7.37-7.37c4.06,0,7.37,3.31,7.37,7.37
			C27.67,23.77,24.36,27.07,20.3,27.07z M20.3,13.11c-3.64,0-6.59,2.96-6.59,6.59c0,3.64,2.96,6.59,6.59,6.59
			c3.64,0,6.59-2.96,6.59-6.59C26.89,16.07,23.93,13.11,20.3,13.11z"/>
	</g>
	<g>
		<path class="st1" d="M20.3,38.41c-2.4,0-4.35-1.95-4.35-4.34c-0.95-0.29-1.86-0.66-2.73-1.13c-0.82,0.82-1.91,1.27-3.07,1.27
			c-1.16,0-2.25-0.45-3.07-1.27c-1.69-1.69-1.69-4.45,0-6.15C6.6,25.91,6.22,25,5.94,24.05c-1.16,0-2.25-0.45-3.07-1.27
			c-0.82-0.82-1.27-1.91-1.27-3.07c0-2.4,1.95-4.35,4.34-4.35c0.29-0.94,0.67-1.86,1.13-2.73c-1.69-1.7-1.69-4.45,0-6.15
			C7.89,5.66,8.98,5.2,10.15,5.2c1.16,0,2.25,0.45,3.07,1.27c0.87-0.47,1.79-0.85,2.73-1.13C15.95,2.95,17.9,1,20.3,1
			c2.4,0,4.35,1.95,4.35,4.34c0.94,0.29,1.86,0.66,2.73,1.13c0.82-0.82,1.91-1.27,3.07-1.27c1.16,0,2.25,0.45,3.07,1.27
			c1.69,1.69,1.7,4.45,0,6.15c0.47,0.87,0.85,1.79,1.13,2.73c1.16,0,2.25,0.45,3.07,1.27C38.55,17.45,39,18.54,39,19.7
			c0,2.4-1.95,4.35-4.34,4.35c-0.29,0.94-0.67,1.86-1.13,2.73c1.69,1.7,1.69,4.45,0,6.15c-0.82,0.82-1.91,1.27-3.07,1.27
			c-1.16,0-2.25-0.45-3.07-1.27c-0.87,0.47-1.79,0.85-2.73,1.13C24.64,36.46,22.69,38.41,20.3,38.41z M13.08,31.47
			c0.11,0,0.22,0.03,0.32,0.09c1.06,0.62,2.2,1.09,3.39,1.4c0.31,0.08,0.52,0.38,0.48,0.71c-0.02,0.14-0.03,0.27-0.03,0.39
			c0,1.69,1.37,3.06,3.06,3.06c1.69,0,3.06-1.37,3.06-3.06c0-0.13-0.01-0.26-0.03-0.39c-0.04-0.32,0.16-0.62,0.47-0.71
			c1.19-0.31,2.32-0.79,3.39-1.4c0.28-0.16,0.64-0.09,0.84,0.16c0.08,0.11,0.17,0.21,0.26,0.3c0.58,0.58,1.35,0.9,2.16,0.9
			c0.82,0,1.58-0.32,2.16-0.9c1.19-1.19,1.19-3.13,0-4.33c-0.09-0.09-0.19-0.18-0.3-0.26c-0.26-0.2-0.33-0.56-0.16-0.83
			c0.62-1.06,1.09-2.2,1.4-3.39c0.08-0.31,0.38-0.52,0.71-0.48c0.14,0.02,0.27,0.03,0.39,0.03c1.69,0,3.06-1.37,3.06-3.06
			c0-0.82-0.32-1.58-0.9-2.16c-0.58-0.58-1.35-0.9-2.16-0.9c-0.13,0-0.26,0.01-0.39,0.03c-0.32,0.04-0.62-0.16-0.71-0.48
			c-0.31-1.19-0.78-2.32-1.4-3.39c-0.16-0.28-0.09-0.64,0.16-0.83c0.11-0.08,0.21-0.17,0.3-0.26c1.19-1.19,1.19-3.13,0-4.33
			c-0.58-0.58-1.35-0.9-2.16-0.9c-0.82,0-1.59,0.32-2.16,0.9c-0.09,0.09-0.18,0.19-0.26,0.3c-0.2,0.26-0.56,0.33-0.83,0.16
			c-1.06-0.62-2.2-1.09-3.39-1.4c-0.31-0.08-0.52-0.38-0.47-0.71c0.02-0.13,0.03-0.27,0.03-0.39c0-1.69-1.37-3.06-3.06-3.06
			c-1.69,0-3.06,1.37-3.06,3.06c0,0.13,0.01,0.26,0.03,0.39c0.04,0.32-0.16,0.62-0.48,0.71c-1.19,0.31-2.32,0.79-3.39,1.4
			c-0.28,0.16-0.64,0.09-0.83-0.16c-0.08-0.11-0.17-0.21-0.26-0.3c-0.58-0.58-1.35-0.9-2.16-0.9c-0.82,0-1.59,0.32-2.16,0.9
			c-1.19,1.19-1.19,3.13,0,4.33c0.09,0.09,0.19,0.18,0.3,0.26c0.26,0.2,0.33,0.56,0.16,0.83c-0.62,1.06-1.09,2.2-1.4,3.39
			c-0.08,0.31-0.38,0.52-0.71,0.48c-0.14-0.02-0.27-0.03-0.39-0.03c-1.69,0-3.06,1.37-3.06,3.06c0,0.82,0.32,1.59,0.9,2.16
			c0.58,0.58,1.35,0.9,2.16,0.9c0.13,0,0.26-0.01,0.39-0.03c0.32-0.04,0.62,0.16,0.71,0.48c0.31,1.18,0.78,2.32,1.4,3.39
			c0.16,0.28,0.09,0.64-0.16,0.83c-0.11,0.08-0.21,0.17-0.3,0.26c-1.19,1.19-1.19,3.13,0,4.33c0.58,0.58,1.35,0.9,2.16,0.9
			c0.82,0,1.58-0.32,2.16-0.9c0.09-0.09,0.17-0.19,0.26-0.3C12.7,31.56,12.89,31.47,13.08,31.47z"/>
	</g>
</g>
</svg>
